<svg xmlns="http://www.w3.org/2000/svg" width="160.907" height="32.181" viewBox="0 0 160.907 32.181">
  <g id="Group_9739" data-name="Group 9739" transform="translate(-697.143 -2931.702)">
    <g id="Group_9737" data-name="Group 9737" transform="translate(697.143 2931.702)">
      <g id="Group_7679" data-name="Group 7679" transform="translate(48.977 3.952)">
        <path id="Path_16678" data-name="Path 16678" d="M139.352,26.29v1.5H128.6V11.8h1.638V26.29Z" transform="translate(-128.6 -11.551)" fill="#00b176"/>
        <path id="Path_16679" data-name="Path 16679" d="M178.4,19.424a8.4,8.4,0,0,1-16.8,0,8.4,8.4,0,0,1,16.8,0Zm-15.095,0A6.693,6.693,0,1,0,170,12.766,6.633,6.633,0,0,0,163.309,19.424Z" transform="translate(-149.852 -11.164)" fill="#00b176"/>
        <path id="Path_16680" data-name="Path 16680" d="M229.112,13.307l-1.068,1.139a7.034,7.034,0,0,0-4.735-1.78,6.708,6.708,0,0,0-6.8,6.693,6.633,6.633,0,0,0,6.693,6.657,7.936,7.936,0,0,0,5.055-1.78V20.356h-4.949v-1.21h6.515v5.945a9.915,9.915,0,0,1-6.622,2.456,8.227,8.227,0,1,1,.107-16.448A8.96,8.96,0,0,1,229.112,13.307Z" transform="translate(-184.112 -11.1)" fill="#00b176"/>
        <path id="Path_16681" data-name="Path 16681" d="M269.9,27.785V11.8h1.638V27.785Z" transform="translate(-219.596 -11.551)" fill="#00b176"/>
        <path id="Path_16682" data-name="Path 16682" d="M299.4,27.785,288.938,14.363V27.785H287.3V11.8h1.816l10.467,13.422V11.8h1.638V27.785Z" transform="translate(-230.801 -11.551)" fill="#00b176"/>
        <path id="Path_16683" data-name="Path 16683" d="M339.866,27.785,333.6,11.8h4.343l4.308,11.713L346.594,11.8h4.343l-6.3,15.985Z" transform="translate(-260.618 -11.551)" fill="#1a54ac"/>
        <path id="Path_16684" data-name="Path 16684" d="M391.856,11.2a13.414,13.414,0,0,1,6.729,1.744l-1.531,2.812a13.014,13.014,0,0,0-5.589-1.5c-1.139,0-2.136.463-2.136,1.5,0,.676.392,1,3.1,1.673,3.845,1.032,6.479,1.851,6.479,5.127,0,3.311-2.634,5.055-6.551,5.055A13.605,13.605,0,0,1,384.7,25.44l1.638-2.706a13.016,13.016,0,0,0,6.408,1.78c1.246,0,2.314-.463,2.314-1.5,0-1.282-.748-1.388-3.667-2.136-3.667-.926-6.017-1.78-6.017-4.664.036-3.489,2.884-5.02,6.479-5.02Z" transform="translate(-293.526 -11.164)" fill="#1a54ac"/>
        <path id="Path_16685" data-name="Path 16685" d="M432.8,27.785V11.8h3.631V27.785Z" transform="translate(-324.502 -11.551)" fill="#1a54ac"/>
      </g>
      <path id="Path_16686" data-name="Path 16686" d="M12.923,39.082H0L11.072,22.1H24Z" transform="translate(0 -14.232)" fill="#00b176"/>
      <path id="Path_16687" data-name="Path 16687" d="M66.623,16.982H53.7L64.772,0H77.7Z" transform="translate(-34.582)" fill="#1a54ac"/>
    </g>
    <path id="group" d="M-50.77-5.667h2.691v.612h-3.443v-5.678h.753Zm6.754-.87h-2.379l-.534,1.482H-47.7l2.168-5.678h.655l2.172,5.678h-.768Zm-2.153-.616h1.93l-.967-2.656Zm4.227,2.1v-5.678h1.856a3.157,3.157,0,0,1,.78.088,1.582,1.582,0,0,1,.583.273,1.2,1.2,0,0,1,.367.47,1.67,1.67,0,0,1,.127.682,1.153,1.153,0,0,1-.226.7,1.466,1.466,0,0,1-.616.474,1.388,1.388,0,0,1,.423.195,1.286,1.286,0,0,1,.312.3,1.324,1.324,0,0,1,.193.394,1.562,1.562,0,0,1,.066.456,1.734,1.734,0,0,1-.135.7,1.408,1.408,0,0,1-.38.515,1.637,1.637,0,0,1-.593.314,2.653,2.653,0,0,1-.772.105Zm.749-2.656v2.043h1.236a1.459,1.459,0,0,0,.478-.072,1.01,1.01,0,0,0,.353-.2.854.854,0,0,0,.22-.32,1.125,1.125,0,0,0,.076-.423,1.364,1.364,0,0,0-.062-.425.791.791,0,0,0-.2-.324.9.9,0,0,0-.341-.2,1.5,1.5,0,0,0-.491-.072Zm0-.6h1.131a1.467,1.467,0,0,0,.441-.062,1,1,0,0,0,.341-.179.8.8,0,0,0,.22-.287.909.909,0,0,0,.078-.384.809.809,0,0,0-.273-.68,1.343,1.343,0,0,0-.831-.213h-1.107Zm8.591.6a3.745,3.745,0,0,1-.162,1.144,2.528,2.528,0,0,1-.458.86,1.961,1.961,0,0,1-.718.542,2.289,2.289,0,0,1-.94.187,2.25,2.25,0,0,1-.924-.187,2.032,2.032,0,0,1-.725-.542A2.528,2.528,0,0,1-37-6.566a3.624,3.624,0,0,1-.168-1.144v-.359A3.647,3.647,0,0,1-37-9.214a2.561,2.561,0,0,1,.468-.864,2.016,2.016,0,0,1,.721-.544,2.23,2.23,0,0,1,.924-.189,2.282,2.282,0,0,1,.942.189,1.993,1.993,0,0,1,.721.544,2.5,2.5,0,0,1,.46.864A3.768,3.768,0,0,1-32.6-8.069Zm-.745-.367a3.515,3.515,0,0,0-.1-.9,1.885,1.885,0,0,0-.3-.655,1.3,1.3,0,0,0-.485-.4,1.492,1.492,0,0,0-.649-.136,1.442,1.442,0,0,0-.632.136,1.32,1.32,0,0,0-.485.4,1.94,1.94,0,0,0-.31.655,3.336,3.336,0,0,0-.109.9v.367a3.3,3.3,0,0,0,.111.9A1.967,1.967,0,0,0-36-6.153a1.329,1.329,0,0,0,.487.4,1.442,1.442,0,0,0,.632.136,1.489,1.489,0,0,0,.651-.136,1.281,1.281,0,0,0,.482-.4,1.9,1.9,0,0,0,.3-.657,3.6,3.6,0,0,0,.1-.9Zm3.95.725H-30.73v2.3h-.753v-5.678h1.88a2.225,2.225,0,0,1,1.476.437,1.571,1.571,0,0,1,.517,1.271A1.529,1.529,0,0,1-27.9-8.1a1.711,1.711,0,0,1-.8.589l1.334,2.41v.047h-.8Zm-1.334-.612h1.15a1.541,1.541,0,0,0,.532-.084,1.107,1.107,0,0,0,.38-.226.911.911,0,0,0,.228-.335,1.123,1.123,0,0,0,.076-.415,1.313,1.313,0,0,0-.072-.446.878.878,0,0,0-.224-.345,1.02,1.02,0,0,0-.386-.222,1.771,1.771,0,0,0-.558-.078H-30.73Zm7.3,1.427h-2.379l-.534,1.482h-.772l2.168-5.678h.655l2.172,5.678h-.768Zm-2.153-.616h1.93l-.967-2.656Zm7.647-2.964h-1.825v5.062H-20.5v-5.062h-1.821v-.616h4.391Zm5.1,2.406a3.745,3.745,0,0,1-.162,1.144,2.527,2.527,0,0,1-.458.86,1.961,1.961,0,0,1-.718.542,2.289,2.289,0,0,1-.94.187,2.25,2.25,0,0,1-.924-.187,2.032,2.032,0,0,1-.725-.542,2.528,2.528,0,0,1-.472-.86A3.623,3.623,0,0,1-17.4-7.71v-.359a3.647,3.647,0,0,1,.168-1.144,2.561,2.561,0,0,1,.468-.864,2.016,2.016,0,0,1,.721-.544,2.23,2.23,0,0,1,.924-.189,2.282,2.282,0,0,1,.942.189,1.993,1.993,0,0,1,.721.544,2.5,2.5,0,0,1,.46.864,3.768,3.768,0,0,1,.162,1.144Zm-.745-.367a3.515,3.515,0,0,0-.1-.9,1.885,1.885,0,0,0-.3-.655,1.3,1.3,0,0,0-.485-.4,1.492,1.492,0,0,0-.649-.136,1.442,1.442,0,0,0-.632.136,1.32,1.32,0,0,0-.485.4,1.94,1.94,0,0,0-.31.655,3.336,3.336,0,0,0-.109.9v.367a3.3,3.3,0,0,0,.111.9,1.967,1.967,0,0,0,.314.657,1.329,1.329,0,0,0,.487.4,1.442,1.442,0,0,0,.632.136,1.489,1.489,0,0,0,.651-.136,1.281,1.281,0,0,0,.482-.4,1.9,1.9,0,0,0,.3-.657,3.6,3.6,0,0,0,.1-.9Zm3.95.725H-10.96v2.3h-.753v-5.678h1.88a2.225,2.225,0,0,1,1.476.437A1.571,1.571,0,0,1-7.84-9.025a1.528,1.528,0,0,1-.287.924,1.711,1.711,0,0,1-.8.589L-7.591-5.1v.047h-.8Zm-1.334-.612h1.15a1.541,1.541,0,0,0,.532-.084,1.107,1.107,0,0,0,.38-.226.911.911,0,0,0,.228-.335,1.123,1.123,0,0,0,.076-.415,1.313,1.313,0,0,0-.072-.446.878.878,0,0,0-.224-.345,1.02,1.02,0,0,0-.386-.222,1.771,1.771,0,0,0-.558-.078H-10.96Zm4.972,2.909h-.749v-5.678h.749ZM-1.41-7.679H-3.871v2.012h2.858v.612H-4.619v-5.678h3.568v.616H-3.871v1.825H-1.41ZM2.946-6.49a.945.945,0,0,0-.06-.351.7.7,0,0,0-.214-.279,1.708,1.708,0,0,0-.415-.238,6.069,6.069,0,0,0-.663-.228A5.631,5.631,0,0,1,.83-7.861a2.5,2.5,0,0,1-.581-.355,1.431,1.431,0,0,1-.368-.458,1.3,1.3,0,0,1-.129-.589A1.378,1.378,0,0,1-.11-9.877a1.468,1.468,0,0,1,.392-.491,1.864,1.864,0,0,1,.608-.326,2.519,2.519,0,0,1,.792-.117,2.362,2.362,0,0,1,.854.144,1.93,1.93,0,0,1,.63.382,1.6,1.6,0,0,1,.388.55,1.63,1.63,0,0,1,.133.643H2.934a1.245,1.245,0,0,0-.076-.441.926.926,0,0,0-.232-.351,1.07,1.07,0,0,0-.39-.23,1.679,1.679,0,0,0-.554-.082,1.741,1.741,0,0,0-.523.07,1.042,1.042,0,0,0-.367.193.767.767,0,0,0-.214.291.94.94,0,0,0-.07.367.707.707,0,0,0,.076.328.834.834,0,0,0,.236.273,1.8,1.8,0,0,0,.411.23,5.144,5.144,0,0,0,.6.2,5.408,5.408,0,0,1,.834.3,2.287,2.287,0,0,1,.579.376,1.37,1.37,0,0,1,.339.472A1.5,1.5,0,0,1,3.7-6.5a1.384,1.384,0,0,1-.14.628,1.373,1.373,0,0,1-.4.48,1.89,1.89,0,0,1-.624.306,2.877,2.877,0,0,1-.813.107A2.843,2.843,0,0,1,1.2-5.026a2.587,2.587,0,0,1-.5-.146,2.219,2.219,0,0,1-.445-.242A1.718,1.718,0,0,1-.1-5.749a1.5,1.5,0,0,1-.238-.429A1.53,1.53,0,0,1-.427-6.7H.325a1.023,1.023,0,0,0,.115.5,1.021,1.021,0,0,0,.308.345,1.335,1.335,0,0,0,.445.2,2.124,2.124,0,0,0,.528.064,1.472,1.472,0,0,0,.909-.242A.785.785,0,0,0,2.946-6.49Z" transform="translate(854.26 2968.86)" fill="#1a54ac"/>
  </g>
</svg>
